<svg xmlns="http://www.w3.org/2000/svg" width="190" height="44" fill="#fff" xmlns:v="https://vecta.io/nano"><path d="M87.692 20.863v-3.875h15.232v3.875h-5.27V34.7h-4.7V20.863h-5.27zm21.814 6.365V34.7h-4.723V16.988h4.552v6.954h.137c.297-.848.8-1.508 1.48-1.98.7-.48 1.52-.718 2.5-.718.93 0 1.737.213 2.42.64a4.29 4.29 0 0 1 1.6 1.764c.383.75.57 1.6.565 2.577V34.7h-4.723v-7.473c.005-.657-.157-1.173-.488-1.548-.325-.375-.8-.562-1.395-.562-.576 0-1.038.187-1.386.562s-.525.9-.53 1.548zm17.154 7.715c-2.105 0-3.762-.602-4.972-1.808-1.203-1.2-1.805-2.892-1.805-5.042 0-1.372.273-2.572.82-3.598s1.32-1.825 2.32-2.396 2.176-.856 3.534-.856c1.324 0 2.473.274 3.45.822s1.74 1.332 2.276 2.352c.542 1.015.813 2.23.813 3.64v1.107h-8.557v.208c0 .64.194 1.17.582 1.6.393.415.94.623 1.642.623.485 0 .908-.1 1.267-.303a1.63 1.63 0 0 0 .753-.874h4.313c-.223 1.384-.896 2.485-2.02 3.304-1.118.82-2.6 1.228-4.415 1.228zm-2.122-8.407h4.2c-.012-.57-.217-1.035-.616-1.392-.394-.363-.885-.545-1.472-.545a2.21 2.21 0 0 0-1.489.536c-.4.357-.622.825-.633 1.4zm25.622-9.548h4.723V28.68c0 1.35-.314 2.488-.94 3.416-.622.922-1.5 1.623-2.636 2.102-1.13.473-2.46.7-3.987.7-1.54 0-2.878-.236-4.014-.7-1.13-.48-2.005-1.18-2.627-2.102-.616-.928-.924-2.067-.924-3.416V16.988h4.758v11.486c0 .657.248 1.2.744 1.6.502.4 1.2.614 2.063.614.9 0 1.586-.205 2.088-.614s.753-.943.753-1.6V16.988zm16.44 5.535c-.046-.577-.26-1.026-.642-1.35-.376-.323-.95-.484-1.72-.484-.736 0-1.272.127-1.608.38a1.19 1.19 0 0 0-.514.97c-.023.42.157.764.54 1.03.388.265.996.487 1.823.666l1.438.3c1.933.42 3.328 1.096 4.184 2.024.856.922 1.286 2.058 1.292 3.408-.006 1.747-.64 3.1-1.9 4.03s-3 1.4-5.22 1.4c-1.524 0-2.853-.228-3.988-.683s-2.008-1.156-2.636-2.102c-.62-.95-.935-2.168-.94-3.65h4.518c.04.813.317 1.433.83 1.86.52.42 1.235.63 2.148.63.765 0 1.34-.138 1.73-.415s.593-.634.6-1.072c-.006-.404-.203-.738-.6-1.003s-1.07-.513-2.045-.727l-1.746-.38c-1.55-.34-2.775-.908-3.67-1.704-.9-.802-1.333-1.894-1.327-3.278-.006-1.124.3-2.108.9-2.95.605-.848 1.44-1.508 2.507-1.98 1.073-.473 2.302-.7 3.688-.7 1.415 0 2.64.24 3.67.718s1.83 1.153 2.388 2.024c.565.865.85 1.877.855 3.036H166.6zM177.062 34.7h-5.134l5.784-17.713h6.503L190 34.7h-5.134l-1-3.4h-5.784l-1 3.4zm2.088-6.988h3.628l-1.746-5.847h-.137l-1.745 5.847zM72.86 5.473v.438l-1.315 1.164-.65-.02-.494.263.134.527v.373l-1.145.55-.2.768v1.448l.898 1.052-.113.44-.944.373v.6l-1.125.593h-.74L66 15.196l.18.176.203 1.317-.764 1.714-.3-.044-.067-.484-.726-.04.5.852.585.68-.247 1-.405.647h-.396l.06-.736-.343-.53-.502-.258-.052-.663.158-.834-.245-.154-.563.57.203.417.045.923.36.176.38.703.082.383.05.232-.158.506.584.044.45.194-.112.552.38.24-.022.218-.383.35.674.506v.658l-.517.307.314.548-.223.55-1.775.284v.68l-.516.967-.83.177-.608 1.008.023.44L60.4 30.6h-.453l-.36.768-.584.307-.01.184-.146 2.276.427.55.18.767.023.02.45.374v.594l1.077.9.112 1 1.2 2.174V42.7h-1.663s.002-.02 0-.025c-.064-.16-.472-.5-.472-.5l-.626.048v-.747h-.428l-.18-.284v-.417l-.36-.023-.717-.813.1-.46-.36.044-.18-.328.023-.097.158-.672-.114-1.14-.38-.13-1.144-1.23-.967-.067-1.144.658-.45.1-.695-1.008-2.133-.154-.03.02-.578.42-.314-.35-.398.345-1.668.006v.703l-.314.417.853.857-.472.284-1.145-.527-.608.704-1.03-.003-.3-.988-1.2-.328v.506l-.245.154-1.64-.417H40.8l-2.224.965v.44l-.897.6-1 .2-.36.527-.494.044-.27.614-.336.1.022 1.274c-.062.2-.054.46-.017.704a4.61 4.61 0 0 0 .33 1.072l-.292.218-1.2-.35c-.78-.148-1.26-.557-1.55-.94-.312-.412-.405-.793-.405-.793-.1-.594-.223-.813-.223-.813-.74-.417-1.303-1.954-1.303-1.954-.007-.02-.015-.036-.023-.053-.537-1.26-1.302-1.878-1.302-1.878h-.74l-.223-.24-1.258-.044v.857l-.786.6c-1.167-.284-1.994-1.703-1.994-1.703l.04-.777-2.56-3.03-2.38-.176-.2.9-4.246-.506-4.872-2.877v-.768h-3.42l-.1-1.192-.047-.52-.584-.218v-.658h-.54l-.082-.475-.455-.118-.855-1.03-1.122-.13-.38-.307.052-.153.002-.002.17-.484-.134-.24-.114-.286.158-.396-.717-1.734-.203-.177v-.263l.314-.328v-.328l-.517-.594.045-1.296-.472-.506.045-.703-.526-.777.054-1.04.158-.663L0 14l.428-.57.784-1.25-.1-.614.223-.396.1-1.58 1.44-2.55v-.57l.24-.343.208-.294.45-1.404v-.394l.405-.46-.247-.44.03-.716.375-.356L3.977 2 4 1.474l-.223-.1v-.35L4 .424h.314l.203.527.74.286.786.13v.53l-.336.46-.45.153.1.703h.65l.45-.527V2.07l.18-.218-.36-.46.26-.44.1-.24-.203-.2.202-.5 2.783.84 3.438.9 1.177.254.148.03 6 .94 1.43.167 7.272.86 6.325.273 2.964-.195V3.5l.608.35v.724l1.258.44.36-.396.942.307.27.44.92.307.72-.222 1.57.24.383-.6.47-.044.628-.658-.044-.24.18-.328 1.706.066.314.2.652 1.207.65.023.134-.35.563.328.045.573.36.24.017.463.005.176.38.02v.46l.427.307.18.394 1.527-.087 2.3-.046.912.88.717 1.052-.27.455h-.998l-.504-.563-.158.1.064.474.05.358-.472.834.314 1.274-.72.57-.066 1.12-.74.24v.374l.83.044 1.2-1.34 1.1.066.967-.745.672.02.18-.35-.156-.307-.72.1-.112-.506.717-.68 1.213-.635.946.043-.136-.417L62 9.632l.337-.68.944-.813 3.592-.814.223-.6.56-.154.136-.263.022-.417.316-.1-.023-.46-.27-.55.37-1.8h2.474l.6 1.8.54.023.064.565.98.112z"/></svg>